<svg xmlns="http://www.w3.org/2000/svg" xmlns:xlink="http://www.w3.org/1999/xlink" width="216" height="216" viewBox="0 0 216 216"><defs><style>.a{fill:#fff4e4;}.b{fill:#ffe5be;}.c{clip-path:url(#a);}.d{fill:#ffd28d;}.e{fill:#fec368;}.f{fill:#f77c42;}.g{fill:#fc8b56;}.h{fill:#e6a02e;}.i{fill:#ed6829;}.j{clip-path:url(#b);}.k{fill:#f9d7a2;}</style><clipPath id="a"><rect class="a" width="216" height="216" rx="64.517"/></clipPath><clipPath id="b"><path class="b" d="M0,28.561C0,39.955,7.891,43.417,18.212,45.253V74.16c0,2.124-2.03,3.84-.016,3.84,0,0,20.129-3.807,29.643-3.807,9.917,0,35.184,5.09,35.184,5.09,1.151-1.282.769-3,.769-5.122V45.253C94.109,43.413,102,39.955,102,28.561c0-12.707-9.8-17.041-21.859-17.041H71.9a24.713,24.713,0,0,0-41.794,0H21.855C9.8,11.524,0,15.854,0,28.561Z" transform="translate(0.254)"/></clipPath></defs><rect class="a" width="216" height="216" rx="64.517"/><g class="c"><path class="d" d="M119.436,22.521C112.071,8.684,64.717,0,64.717,0S17.363,8.684,10,22.521c-5.444,19.2-10,43.6-10,43.6H129.434s-3.075-26.162-10-43.6" transform="translate(43.024 152.405)"/><path class="e" d="M0,0S47.354,8.684,54.719,22.521c6.923,17.441,10,43.6,10,43.6H0V0" transform="translate(107.741 152.405)"/><path class="d" d="M0,43.614H25.324V0H0Z" transform="translate(95.079 124.267)"/><path class="e" d="M0,43.614H12.662V0H0Z" transform="translate(107.741 124.267)"/><path class="d" d="M12.662,29.545C7.183,28.14,1.69,24.785,0,19.877V0H12.662V29.545" transform="translate(95.079 124.267)"/><path class="e" d="M5.557,30.952A22.218,22.218,0,0,1,0,30.193V0H12.662V29.754a22.062,22.062,0,0,1-7.105,1.2" transform="translate(107.741 124.267)"/><path class="d" d="M66.124,42.448C66.124,15.388,51.322,0,33.062,0S0,15.388,0,42.448c0,36.4,14.8,49,33.062,49s33.062-14.118,33.062-49" transform="translate(75.383 53.922)"/><path class="d" d="M9.391,26.683C3.26,26.055-.879,19.582.16,12.236S6.992-.576,13.125.049,23.387,7.143,22.351,14.5,15.523,27.3,9.391,26.683" transform="translate(127.438 89.094)"/><path class="d" d="M.159,14.5C-.875,7.143,3.257.675,9.381.049s11.943,4.835,12.97,12.187-3.106,13.819-9.234,14.447S1.188,21.85.159,14.5" transform="translate(66.941 89.094)"/><path class="e" d="M33.766,42.448C33.766,15.388,18.648,0,0,0V91.448c18.648,0,33.766-14.118,33.766-49" transform="translate(107.741 53.922)"/><path class="f" d="M61.754,9.6c-1.8,4.983-4.845,10.974-10.347,10.974-6.879,0-11.8-5.5-19.686-5.5l-.065,0-.069,0c-7.887,0-12.8,5.5-19.683,5.5-5.5,0-8.545-5.991-10.346-10.974L0,0V11.487s2.615,13.529,7.632,16.8c4.089,3.576,17.43,9.7,23.953,9.7h0l.069,0,.065,0h0c6.526,0,19.868-6.126,23.953-9.7,5.019-3.268,7.634-16.8,7.634-16.8V0L61.754,9.6" transform="translate(76.789 108.791)"/><path class="f" d="M40.935,49.841A33.619,33.619,0,0,1,37.079,37.5,60.635,60.635,0,0,0,51.909,48.08c-.383-15.6-.766-18.582-.383-33.441S4.451-8.022,0,12.247C0,12.247,6.23,37.212,40.935,49.841Z" transform="translate(92.265 47.694)"/><path class="f" d="M18.358.655C9.469-3.252,4.611,11.315,2.882,18.092,2.1,21.158,1.395,21.337.068,29.431c-.779,4.752,5.364,5.628,5.364,5.628S7.938,6.886,18.358.655Z" transform="translate(75.314 59.663)"/><path class="g" d="M119.436,18.272C115.135,10.186,97.208,3.864,83.029,0A18.3,18.3,0,0,1,64.717,17.181,18.294,18.294,0,0,1,46.407,0C32.226,3.864,14.3,10.186,10,18.272,4.554,37.488,0,61.9,0,61.9H129.434s-3.075-26.179-10-43.631" transform="translate(43.024 156.625)"/><path class="h" d="M.813.984C.74.8.668.61.594.423.668.608.74.8.813.984" transform="translate(161.203 174.915)"/><path class="f" d="M54.762,22.51A19.062,19.062,0,0,1,35.511,4.837C22.72,8.246,7.056,13.524,0,20.2c.127-.471.254-.942.381-1.409C4.658,10.478,22.472,3.975,36.565,0a18.46,18.46,0,0,0,18.2,17.673A18.462,18.462,0,0,0,72.961,0c14.092,3.975,31.908,10.478,36.182,18.8.083.214.163.427.245.643.118.318.234.639.35.959C102.785,13.624,86.93,8.28,74.015,4.837A19.062,19.062,0,0,1,54.762,22.51" transform="translate(52.872 156.625)"/><path class="i" d="M0,1.6A24.385,24.385,0,0,0,23.916,22.51,24.387,24.387,0,0,0,47.834,1.6C45.985,1.029,44.16.5,42.394,0A18.688,18.688,0,0,1,23.916,17.825,18.686,18.686,0,0,1,5.441,0C3.673.5,1.849,1.029,0,1.6" transform="translate(83.824 156.625)"/><path class="d" d="M11.255,2.814S10.432,0,5.628,0C1.235,0,0,2.814,0,2.814H11.255" transform="translate(102.114 129.894)"/></g><g transform="translate(59.746 3)"><path class="b" d="M0,28.561C0,39.955,7.891,43.417,18.212,45.253V74.16c0,2.124-2.03,3.84-.016,3.84,0,0,20.129-3.807,29.643-3.807,9.917,0,35.184,5.09,35.184,5.09,1.151-1.282.769-3,.769-5.122V45.253C94.109,43.413,102,39.955,102,28.561c0-12.707-9.8-17.041-21.859-17.041H71.9a24.713,24.713,0,0,0-41.794,0H21.855C9.8,11.524,0,15.854,0,28.561Z" transform="translate(0.254)"/><g class="j"><path class="k" d="M60.125,74.193V0L0,15.032,9,81.739l27.174,4.355Z" transform="translate(-11.426)"/></g></g></svg>